<?xml version="1.0" encoding="utf-8"?>
<!-- Generator: Adobe Illustrator 25.4.1, SVG Export Plug-In . SVG Version: 6.00 Build 0)  -->
<svg version="1.1" id="Capa_1" xmlns="http://www.w3.org/2000/svg" xmlns:xlink="http://www.w3.org/1999/xlink" x="0px" y="0px"
	 viewBox="0 0 278 85" style="enable-background:new 0 0 278 85;" xml:space="preserve">
<style type="text/css">
	.st0{fill:url(#SVGID_1_);}
	.st1{fill:#BDBCBC;}
	.st2{fill:url(#SVGID_00000176034018299735386830000018104247483904858804_);}
	.st3{fill:#D91A61;}
	.st4{fill:#FFFFFF;}
</style>
<linearGradient id="SVGID_1_" gradientUnits="userSpaceOnUse" x1="238" y1="1" x2="238" y2="86" gradientTransform="matrix(1 0 0 -1 0 86)">
	<stop  offset="0" style="stop-color:#FFFFFF"/>
	<stop  offset="0.5" style="stop-color:#E9E9E9"/>
	<stop  offset="1" style="stop-color:#FFFFFF"/>
</linearGradient>
<path class="st0" d="M198,0h72c4.4,0,8,3.6,8,8v62c0,8.3-6.7,15-15,15h-65V0z"/>
<path class="st1" d="M269.3,74.6H198V85h71.3c4.8,0,8.7-3.9,8.7-8.6V66C278,70.8,274.1,74.6,269.3,74.6z"/>
<linearGradient id="SVGID_00000012437634153755592650000017692436687995007904_" gradientUnits="userSpaceOnUse" x1="99" y1="1" x2="99" y2="86" gradientTransform="matrix(1 0 0 -1 0 86)">
	<stop  offset="0" style="stop-color:#EF6491"/>
	<stop  offset="2.000000e-02" style="stop-color:#EF6491"/>
	<stop  offset="0.5" style="stop-color:#EA417B"/>
	<stop  offset="1" style="stop-color:#EF6491"/>
</linearGradient>
<path style="fill:url(#SVGID_00000012437634153755592650000017692436687995007904_);" d="M0,8c0-4.4,3.6-8,8-8h190v85H15
	C6.7,85,0,78.3,0,70V8z"/>
<path class="st3" d="M8.7,74.6C3.9,74.6,0,70.8,0,66v10.4C0,81.1,3.9,85,8.7,85H198V74.6H8.7z"/>
<path class="st3" d="M236.2,25.4l8.9,11.1c0.2,0.3,0.2,0.7,0,1l-8.9,11.1c-0.4,0.5,0,1.2,0.6,1.2h5.9c0.2,0,0.4-0.1,0.6-0.3
	l9.7-12.1c0.2-0.3,0.2-0.7,0-1l-9.8-12c-0.1-0.2-0.4-0.3-0.6-0.3h-5.9C236.1,24.1,235.8,24.9,236.2,25.4z"/>
<path class="st3" d="M223.2,25.4l8.9,11.1c0.2,0.3,0.2,0.7,0,1l-8.9,11.1c-0.4,0.5,0,1.2,0.6,1.2h5.9c0.2,0,0.4-0.1,0.6-0.3
	l9.7-12.1c0.2-0.3,0.2-0.7,0-1l-9.7-12.1c-0.1-0.2-0.4-0.3-0.6-0.3h-5.9C223.2,24.1,222.8,24.9,223.2,25.4z"/>
<path class="st4" d="M55.1,34.3c2.5,0,4.1-0.7,5.5-1.9c0.3-0.3,0.6-0.7,0.6-1.2c0-0.9-0.7-1.6-1.6-1.6c-0.4,0-0.7,0.2-1,0.4
	c-1,0.8-1.9,1.2-3.3,1.2c-2.6,0-4.5-2.2-4.5-4.8v0c0-2.6,1.9-4.8,4.5-4.8c1.2,0,2.2,0.4,3.1,1.1c0.2,0.2,0.5,0.3,1,0.3
	c0.9,0,1.7-0.7,1.7-1.6c0-0.6-0.3-1.1-0.7-1.3c-1.3-0.9-2.8-1.6-5.1-1.6c-4.7,0-8,3.6-8,8v0C47.2,30.8,50.5,34.3,55.1,34.3z
	 M64.2,32.4c0,0.9,0.7,1.7,1.7,1.7s1.7-0.7,1.7-1.7V20.2c0-0.9-0.7-1.7-1.7-1.7s-1.7,0.7-1.7,1.7V32.4z M71.5,32.4
	c0,0.9,0.7,1.7,1.7,1.7s1.7-0.7,1.7-1.7v-3.4h2.7l3.3,4.2c0.4,0.5,0.9,0.9,1.7,0.9c0.8,0,1.6-0.6,1.6-1.6c0-0.5-0.2-0.9-0.6-1.3
	l-2.4-2.9c1.9-0.8,3.1-2.3,3.1-4.7v0c0-1.5-0.5-2.7-1.3-3.5c-1-1-2.5-1.6-4.5-1.6h-5.3c-0.9,0-1.7,0.7-1.7,1.7V32.4z M74.9,26.1
	v-4.4h3.4c1.7,0,2.7,0.7,2.7,2.2v0c0,1.3-0.9,2.2-2.6,2.2H74.9z M93.8,34.2c4.1,0,6.8-2.3,6.8-7v-7.1c0-0.9-0.7-1.7-1.7-1.7
	c-0.9,0-1.7,0.7-1.7,1.7v7.3c0,2.4-1.3,3.7-3.3,3.7s-3.3-1.3-3.3-3.8v-7.1c0-0.9-0.7-1.7-1.7-1.7s-1.7,0.7-1.7,1.7v7.2
	C87.1,31.9,89.7,34.2,93.8,34.2z M111.4,34.3c2.3,0,4.1-0.8,5.4-1.5c0.8-0.5,1.2-1.2,1.2-2.2v-3.7c0-0.9-0.7-1.7-1.7-1.7h-3.9
	c-0.8,0-1.5,0.7-1.5,1.5c0,0.8,0.7,1.5,1.5,1.5h2.3v2.2c-0.9,0.6-2,0.9-3.2,0.9c-2.7,0-4.7-2.1-4.7-4.9v0c0-2.6,2-4.8,4.4-4.8
	c1.5,0,2.4,0.4,3.4,1.1c0.2,0.2,0.6,0.4,1,0.4c0.9,0,1.7-0.7,1.7-1.7c0-0.7-0.4-1.1-0.7-1.4c-1.4-1-2.9-1.5-5.3-1.5
	c-4.7,0-8.1,3.6-8.1,8v0C103.3,30.9,106.6,34.3,111.4,34.3z M121.4,32.4c0,0.9,0.7,1.7,1.7,1.7s1.7-0.7,1.7-1.7V20.2
	c0-0.9-0.7-1.7-1.7-1.7s-1.7,0.7-1.7,1.7V32.4z M123,17.5c0.7,0,1.3-0.1,1.9-0.7l1.4-1.3c0.3-0.2,0.4-0.5,0.4-0.8c0-0.5-1.1-1-1.9-1
	c-0.5,0-1,0.3-1.3,0.7l-1.2,1.9c-0.1,0.2-0.2,0.4-0.2,0.6C122.2,17.3,122.5,17.5,123,17.5z M127.6,32.5c0,0.9,0.7,1.6,1.6,1.6
	c0.7,0,1.3-0.4,1.6-1.1l1.1-2.5h6.8l1,2.4c0.3,0.7,0.8,1.2,1.6,1.2c0.9,0,1.6-0.7,1.6-1.6c0-0.2-0.1-0.4-0.2-0.7l-5.4-12.1
	c-0.4-0.8-1-1.3-2-1.3h-0.2c-0.9,0-1.6,0.5-2,1.3l-5.4,12.1C127.7,32.1,127.6,32.3,127.6,32.5z M133.1,27.6l2.1-5.1l2.1,5.1H133.1z
	 M49.5,60h8.6c0.8,0,1.5-0.7,1.5-1.5c0-0.8-0.7-1.5-1.5-1.5h-7v-3.2h5.9c0.8,0,1.5-0.7,1.5-1.5c0-0.8-0.7-1.5-1.5-1.5h-5.9v-3.1h6.9
	c0.8,0,1.5-0.7,1.5-1.5s-0.7-1.5-1.5-1.5h-8.5c-0.9,0-1.7,0.7-1.7,1.7v12C47.8,59.3,48.6,60,49.5,60z M68.1,60.2
	c3.3,0,5.7-1.7,5.7-4.8v0c0-2.7-1.8-3.8-4.9-4.6c-2.7-0.7-3.3-1-3.3-2v0c0-0.7,0.7-1.3,2-1.3c1.1,0,2.1,0.4,3.2,1
	c0.3,0.2,0.5,0.2,0.9,0.2c0.9,0,1.6-0.7,1.6-1.6c0-0.7-0.4-1.1-0.7-1.3c-1.4-0.9-3-1.4-4.9-1.4c-3.1,0-5.4,1.8-5.4,4.6v0
	c0,3.1,2,3.9,5.1,4.7c2.6,0.7,3.1,1.1,3.1,2v0c0,0.9-0.8,1.5-2.2,1.5c-1.5,0-2.8-0.5-3.9-1.4c-0.2-0.2-0.5-0.3-1-0.3
	c-0.9,0-1.6,0.7-1.6,1.6c0,0.5,0.3,1,0.6,1.3C64,59.6,66,60.2,68.1,60.2z M79.9,58.4c0,0.9,0.7,1.7,1.7,1.7s1.7-0.7,1.7-1.7V47.7
	h3.3c0.9,0,1.6-0.7,1.6-1.6c0-0.9-0.7-1.6-1.6-1.6h-9.9c-0.9,0-1.6,0.7-1.6,1.6c0,0.9,0.7,1.6,1.6,1.6h3.3V58.4z M92.3,60h8.6
	c0.8,0,1.5-0.7,1.5-1.5c0-0.8-0.7-1.5-1.5-1.5h-7v-3.2h5.9c0.8,0,1.5-0.7,1.5-1.5c0-0.8-0.7-1.5-1.5-1.5H94v-3.1h6.9
	c0.8,0,1.5-0.7,1.5-1.5s-0.7-1.5-1.5-1.5h-8.5c-0.9,0-1.7,0.7-1.7,1.7v12C90.6,59.3,91.3,60,92.3,60z M96.4,43.5
	c0.7,0,1.3-0.1,1.9-0.7l1.4-1.3c0.3-0.2,0.4-0.5,0.4-0.8c0-0.5-1.1-1-1.9-1c-0.5,0-1,0.3-1.3,0.7l-1.2,1.9c-0.1,0.2-0.2,0.4-0.2,0.6
	C95.5,43.3,95.9,43.5,96.4,43.5z M108.9,58.4c0,0.9,0.7,1.7,1.7,1.7s1.7-0.7,1.7-1.7V47.7h3.3c0.9,0,1.6-0.7,1.6-1.6
	c0-0.9-0.7-1.6-1.6-1.6h-9.9c-0.9,0-1.6,0.7-1.6,1.6c0,0.9,0.7,1.6,1.6,1.6h3.3V58.4z M119.8,58.4c0,0.9,0.7,1.7,1.7,1.7
	s1.7-0.7,1.7-1.7V46.2c0-0.9-0.7-1.7-1.7-1.7s-1.7,0.7-1.7,1.7V58.4z M134.2,60.3c2.5,0,4.1-0.7,5.5-1.9c0.3-0.3,0.6-0.7,0.6-1.2
	c0-0.9-0.7-1.6-1.6-1.6c-0.4,0-0.7,0.2-1,0.4c-1,0.8-1.9,1.2-3.3,1.2c-2.6,0-4.5-2.2-4.5-4.8v0c0-2.6,1.9-4.8,4.5-4.8
	c1.2,0,2.2,0.4,3.1,1.1c0.2,0.2,0.6,0.3,1,0.3c0.9,0,1.7-0.7,1.7-1.6c0-0.6-0.3-1.1-0.7-1.3c-1.3-0.9-2.8-1.6-5.1-1.6
	c-4.7,0-8,3.6-8,8v0C126.3,56.8,129.7,60.3,134.2,60.3z M142.2,58.5c0,0.9,0.7,1.6,1.6,1.6c0.7,0,1.3-0.4,1.6-1.1l1.1-2.5h6.8l1,2.4
	c0.3,0.7,0.8,1.2,1.6,1.2c0.9,0,1.6-0.7,1.6-1.6c0-0.2-0.1-0.4-0.2-0.7l-5.4-12.1c-0.4-0.8-1-1.3-2-1.3h-0.2c-0.9,0-1.6,0.5-2,1.3
	l-5.4,12.1C142.3,58.1,142.2,58.3,142.2,58.5z M147.6,53.6l2.1-5.1l2.1,5.1H147.6z"/>
</svg>
