<?xml version="1.0" encoding="utf-8"?>
<!-- Generator: Adobe Illustrator 25.4.1, SVG Export Plug-In . SVG Version: 6.00 Build 0)  -->
<svg version="1.1" id="Capa_1" xmlns="http://www.w3.org/2000/svg" xmlns:xlink="http://www.w3.org/1999/xlink" x="0px" y="0px"
	 viewBox="0 0 278 85" style="enable-background:new 0 0 278 85;" xml:space="preserve">
<style type="text/css">
	.st0{fill:url(#SVGID_1_);}
	.st1{fill:#BDBCBC;}
	.st2{fill:url(#SVGID_00000179613873009514021200000010484348467852382121_);}
	.st3{fill:#D91A61;}
	.st4{fill:#FFFFFF;}
</style>
<linearGradient id="SVGID_1_" gradientUnits="userSpaceOnUse" x1="238" y1="1" x2="238" y2="86" gradientTransform="matrix(1 0 0 -1 0 86)">
	<stop  offset="0" style="stop-color:#FFFFFF"/>
	<stop  offset="0.5" style="stop-color:#E9E9E9"/>
	<stop  offset="1" style="stop-color:#FFFFFF"/>
</linearGradient>
<path class="st0" d="M198,0h72c4.4,0,8,3.6,8,8v62c0,8.3-6.7,15-15,15h-65V0z"/>
<path class="st1" d="M269.3,74.6H198V85h71.3c4.8,0,8.7-3.9,8.7-8.6V66C278,70.8,274.1,74.6,269.3,74.6z"/>
<linearGradient id="SVGID_00000176740728903103908840000007030037279735077252_" gradientUnits="userSpaceOnUse" x1="99" y1="1" x2="99" y2="86" gradientTransform="matrix(1 0 0 -1 0 86)">
	<stop  offset="0" style="stop-color:#EF6491"/>
	<stop  offset="2.000000e-02" style="stop-color:#EF6491"/>
	<stop  offset="0.5" style="stop-color:#EA417B"/>
	<stop  offset="1" style="stop-color:#EF6491"/>
</linearGradient>
<path style="fill:url(#SVGID_00000176740728903103908840000007030037279735077252_);" d="M0,8c0-4.4,3.6-8,8-8h190v85H15
	C6.7,85,0,78.3,0,70V8z"/>
<path class="st3" d="M8.7,74.6C3.9,74.6,0,70.8,0,66v10.4C0,81.1,3.9,85,8.7,85H198V74.6H8.7z"/>
<path class="st3" d="M236.2,25.4l8.9,11.1c0.2,0.3,0.2,0.7,0,1l-8.9,11.1c-0.4,0.5,0,1.2,0.6,1.2h5.9c0.2,0,0.4-0.1,0.6-0.3
	l9.7-12.1c0.2-0.3,0.2-0.7,0-1l-9.8-12c-0.1-0.2-0.4-0.3-0.6-0.3h-5.9C236.1,24.1,235.8,24.9,236.2,25.4z"/>
<path class="st3" d="M223.2,25.4l8.9,11.1c0.2,0.3,0.2,0.7,0,1l-8.9,11.1c-0.4,0.5,0,1.2,0.6,1.2h5.9c0.2,0,0.4-0.1,0.6-0.3
	l9.7-12.1c0.2-0.3,0.2-0.7,0-1l-9.7-12.1c-0.1-0.2-0.4-0.3-0.6-0.3h-5.9C223.2,24.1,222.8,24.9,223.2,25.4z"/>
<path class="st4" d="M22.8,43.4c0,0.9,0.7,1.7,1.7,1.7c0.9,0,1.7-0.7,1.7-1.7V39h5.9c0.9,0,1.5-0.7,1.5-1.5c0-0.9-0.7-1.5-1.5-1.5
	h-5.9v-3.3h6.9c0.9,0,1.5-0.7,1.5-1.5s-0.7-1.5-1.5-1.5h-8.6c-0.9,0-1.7,0.7-1.7,1.7V43.4z M39,45h8.6c0.8,0,1.5-0.7,1.5-1.5
	c0-0.8-0.7-1.5-1.5-1.5h-7v-3.2h5.9c0.8,0,1.5-0.7,1.5-1.5c0-0.8-0.7-1.5-1.5-1.5h-5.9v-3.1h6.9c0.8,0,1.5-0.7,1.5-1.5
	s-0.7-1.5-1.5-1.5H39c-0.9,0-1.7,0.7-1.7,1.7v12C37.3,44.3,38,45,39,45z M52,43.4c0,0.9,0.7,1.7,1.7,1.7s1.7-0.7,1.7-1.7v-3.4h2.7
	l3.3,4.2c0.4,0.5,0.9,0.9,1.7,0.9c0.8,0,1.6-0.6,1.6-1.6c0-0.5-0.2-0.9-0.6-1.3l-2.4-2.9c1.9-0.8,3.1-2.3,3.1-4.7v0
	c0-1.5-0.5-2.7-1.3-3.5c-1-1-2.5-1.6-4.5-1.6h-5.3c-0.9,0-1.7,0.7-1.7,1.7V43.4z M55.4,37.1v-4.4h3.4c1.6,0,2.7,0.7,2.7,2.2v0
	c0,1.3-0.9,2.2-2.6,2.2H55.4z M71.5,43.4c0,0.9,0.7,1.7,1.7,1.7s1.7-0.7,1.7-1.7V32.7h3.3c0.9,0,1.6-0.7,1.6-1.6s-0.7-1.6-1.6-1.6
	h-9.9c-0.9,0-1.6,0.7-1.6,1.6s0.7,1.6,1.6,1.6h3.3V43.4z M82.3,43.4c0,0.9,0.7,1.7,1.7,1.7s1.7-0.7,1.7-1.7V31.2
	c0-0.9-0.7-1.7-1.7-1.7s-1.7,0.7-1.7,1.7V43.4z M89.6,43.3c0,0.9,0.7,1.7,1.7,1.7h8c0.9,0,1.5-0.7,1.5-1.5c0-0.9-0.7-1.5-1.5-1.5H93
	V31.2c0-0.9-0.7-1.7-1.7-1.7s-1.7,0.7-1.7,1.7V43.3z M103.4,43.4c0,0.9,0.7,1.7,1.7,1.7c0.9,0,1.7-0.7,1.7-1.7V31.2
	c0-0.9-0.7-1.7-1.7-1.7c-0.9,0-1.7,0.7-1.7,1.7V43.4z M110.6,43.3c0,0.9,0.7,1.7,1.7,1.7h4.3c4.8,0,8.2-3.4,8.2-7.7v0
	c0-4.3-3.3-7.7-8.2-7.7h-4.3c-0.9,0-1.7,0.7-1.7,1.7V43.3z M114,41.9v-9.3h2.6c2.8,0,4.6,1.9,4.6,4.6v0c0,2.7-1.9,4.6-4.6,4.6H114z
	 M126.1,43.5c0,0.9,0.7,1.6,1.6,1.6c0.7,0,1.3-0.4,1.6-1.1l1.1-2.5h6.8l1,2.4c0.3,0.7,0.8,1.2,1.6,1.2c0.9,0,1.6-0.7,1.6-1.6
	c0-0.2-0.1-0.4-0.2-0.7l-5.4-12.1c-0.4-0.8-1-1.3-2-1.3h-0.2c-0.9,0-1.6,0.5-2,1.3l-5.4,12.1C126.2,43.1,126.1,43.3,126.1,43.5z
	 M131.5,38.6l2.1-5.1l2.1,5.1H131.5z M144,43.3c0,0.9,0.7,1.7,1.7,1.7h4.3c4.8,0,8.2-3.4,8.2-7.7v0c0-4.3-3.3-7.7-8.2-7.7h-4.3
	c-0.9,0-1.7,0.7-1.7,1.7V43.3z M147.4,41.9v-9.3h2.6c2.8,0,4.6,1.9,4.6,4.6v0c0,2.7-1.9,4.6-4.6,4.6H147.4z"/>
</svg>
