<?xml version="1.0" encoding="utf-8"?>
<!-- Generator: Adobe Illustrator 25.4.1, SVG Export Plug-In . SVG Version: 6.00 Build 0)  -->
<svg version="1.1" id="Capa_1" xmlns="http://www.w3.org/2000/svg" xmlns:xlink="http://www.w3.org/1999/xlink" x="0px" y="0px"
	 viewBox="0 0 283.5 88.8" style="enable-background:new 0 0 283.5 88.8;" xml:space="preserve">
<style type="text/css">
	
		.st0{clip-path:url(#SVGID_00000045607723872866200650000008031512208492520596_);fill:url(#SVGID_00000183231312721429123300000001639392096764718228_);}
	
		.st1{clip-path:url(#SVGID_00000059993001100495758820000013160368065785788844_);fill:url(#SVGID_00000009583828491375144510000013723949350318956221_);}
	.st2{fill:#BDBCBC;}
	.st3{fill:#D91A61;}
	.st4{enable-background:new    ;}
	.st5{fill:#FFFFFF;}
</style>
<g>
	<g>
		<g>
			<defs>
				<path id="SVGID_1_" d="M11.2,1.6c-4.8,0-8.7,3.9-8.7,8.7v68.1c0,4.8,3.9,8.7,8.7,8.7h189.5V1.6H11.2z"/>
			</defs>
			<clipPath id="SVGID_00000028283028443056866560000002040415248969238939_">
				<use xlink:href="#SVGID_1_"  style="overflow:visible;"/>
			</clipPath>
			
				<linearGradient id="SVGID_00000087411159774343146910000001419612216232746900_" gradientUnits="userSpaceOnUse" x1="101.55" y1="2.8" x2="101.55" y2="88.4" gradientTransform="matrix(1 0 0 -1 0 90)">
				<stop  offset="0" style="stop-color:#EF6491"/>
				<stop  offset="2.000000e-02" style="stop-color:#EF6491"/>
				<stop  offset="0.5" style="stop-color:#EA417B"/>
				<stop  offset="1" style="stop-color:#EF6491"/>
			</linearGradient>
			
				<rect x="2.4" y="1.6" style="clip-path:url(#SVGID_00000028283028443056866560000002040415248969238939_);fill:url(#SVGID_00000087411159774343146910000001419612216232746900_);" width="198.3" height="85.6"/>
		</g>
	</g>
	<g>
		<g>
			<defs>
				<path id="SVGID_00000080185907819251927260000001705896790458681481_" d="M272.3,1.6h-71.6v85.6h71.6c4.8,0,8.7-3.9,8.7-8.7
					V10.3C281,5.5,277.1,1.6,272.3,1.6"/>
			</defs>
			<clipPath id="SVGID_00000118371914507235613330000014447751361620501157_">
				<use xlink:href="#SVGID_00000080185907819251927260000001705896790458681481_"  style="overflow:visible;"/>
			</clipPath>
			
				<linearGradient id="SVGID_00000071561471743739258470000014853828075019552445_" gradientUnits="userSpaceOnUse" x1="240.85" y1="2.8" x2="240.85" y2="88.4" gradientTransform="matrix(1 0 0 -1 0 90)">
				<stop  offset="0" style="stop-color:#FFFFFF"/>
				<stop  offset="0.5" style="stop-color:#E9E9E9"/>
				<stop  offset="1" style="stop-color:#FFFFFF"/>
			</linearGradient>
			
				<rect x="200.7" y="1.6" style="clip-path:url(#SVGID_00000118371914507235613330000014447751361620501157_);fill:url(#SVGID_00000071561471743739258470000014853828075019552445_);" width="80.3" height="85.6"/>
		</g>
	</g>
	<path class="st2" d="M272.3,76.7h-71.6v10.5h71.6c4.8,0,8.7-3.9,8.7-8.7V68C281,72.8,277.1,76.7,272.3,76.7"/>
	<path class="st3" d="M11.2,76.7c-4.8,0-8.7-3.9-8.7-8.7v10.5c0,4.8,3.9,8.7,8.7,8.7h189.5V76.7H11.2z"/>
	<path class="st3" d="M239,28.7l8.9,11.1c0.2,0.3,0.2,0.7,0,1L239,51.9c-0.4,0.5,0,1.2,0.6,1.2h5.9c0.2,0,0.4-0.1,0.6-0.3l9.7-12.1
		c0.2-0.3,0.2-0.7,0-1l-9.8-12c-0.1-0.2-0.4-0.3-0.6-0.3h-5.9C238.9,27.4,238.6,28.2,239,28.7"/>
	<path class="st3" d="M226,28.7l8.9,11.1c0.2,0.3,0.2,0.7,0,1L226,51.9c-0.4,0.5,0,1.2,0.6,1.2h5.9c0.2,0,0.4-0.1,0.6-0.3l9.7-12.1
		c0.2-0.3,0.2-0.7,0-1l-9.7-12.1c-0.1-0.2-0.4-0.3-0.6-0.3h-5.9C226,27.4,225.6,28.2,226,28.7"/>
	<g class="st4">
		<path class="st5" d="M21.7,40.3L21.7,40.3c0-4.4,3.4-7.9,7.9-7.9c2.3,0,3.8,0.5,5.2,1.5c0.3,0.2,0.7,0.7,0.7,1.3
			c0,0.9-0.7,1.6-1.6,1.6c-0.5,0-0.8-0.2-1-0.3c-0.9-0.6-1.9-1-3.3-1c-2.4,0-4.4,2.1-4.4,4.7v0c0,2.8,1.9,4.8,4.6,4.8
			c1.2,0,2.3-0.3,3.1-0.9V42h-2.3c-0.8,0-1.5-0.6-1.5-1.4c0-0.8,0.6-1.5,1.5-1.5h3.8c0.9,0,1.7,0.7,1.7,1.7v3.7c0,1-0.4,1.6-1.2,2.1
			c-1.2,0.8-3,1.5-5.3,1.5C25,48.1,21.7,44.8,21.7,40.3z"/>
		<path class="st5" d="M39.5,34.3c0-0.9,0.7-1.7,1.7-1.7s1.7,0.7,1.7,1.7v12.1c0,0.9-0.7,1.7-1.7,1.7s-1.7-0.7-1.7-1.7V34.3z"/>
		<path class="st5" d="M46.7,34.3c0-0.9,0.7-1.7,1.7-1.7h0.3c0.8,0,1.3,0.4,1.7,1l6.4,8.4v-7.8c0-0.9,0.7-1.6,1.6-1.6
			c0.9,0,1.6,0.7,1.6,1.6v12.1c0,0.9-0.7,1.7-1.7,1.7h-0.1c-0.8,0-1.3-0.4-1.7-1L50,38.2v8.1c0,0.9-0.7,1.6-1.6,1.6
			s-1.6-0.7-1.6-1.6V34.3z"/>
		<path class="st5" d="M63.8,46.2V34.4c0-0.9,0.7-1.7,1.7-1.7h8.4c0.8,0,1.5,0.7,1.5,1.5c0,0.8-0.7,1.5-1.5,1.5h-6.8v3.1h5.8
			c0.8,0,1.5,0.7,1.5,1.5c0,0.8-0.7,1.5-1.5,1.5h-5.8v3.2h6.9c0.8,0,1.5,0.7,1.5,1.5c0,0.8-0.7,1.5-1.5,1.5h-8.5
			C64.5,47.9,63.8,47.1,63.8,46.2z"/>
		<path class="st5" d="M77.6,40.3L77.6,40.3c0-4.4,3.2-7.9,7.9-7.9c2.3,0,3.8,0.6,5.1,1.5c0.3,0.3,0.6,0.7,0.6,1.3
			c0,0.9-0.7,1.6-1.6,1.6c-0.5,0-0.8-0.2-1-0.3c-0.9-0.7-1.9-1.1-3.1-1.1c-2.6,0-4.4,2.1-4.4,4.7v0c0,2.6,1.8,4.8,4.4,4.8
			c1.4,0,2.3-0.4,3.3-1.2c0.3-0.2,0.6-0.4,1-0.4c0.8,0,1.6,0.7,1.6,1.5c0,0.5-0.3,0.9-0.6,1.2c-1.4,1.2-3,1.9-5.4,1.9
			C80.9,48.1,77.6,44.7,77.6,40.3z"/>
	</g>
	<g class="st4">
		<path class="st5" d="M93.2,40.3L93.2,40.3c0-4.4,3.4-7.9,8.1-7.9c4.7,0,8,3.5,8,7.8v0c0,4.3-3.4,7.8-8.1,7.8S93.2,44.7,93.2,40.3z
			 M105.8,40.3L105.8,40.3c0-2.6-1.9-4.8-4.6-4.8c-2.7,0-4.5,2.1-4.5,4.7v0c0,2.6,1.9,4.8,4.6,4.8C103.9,45.1,105.8,42.9,105.8,40.3
			z"/>
		<path class="st5" d="M112.2,34.3c0-0.9,0.7-1.7,1.7-1.7c0.9,0,1.7,0.7,1.7,1.7v10.6h6.2c0.8,0,1.5,0.7,1.5,1.5s-0.7,1.5-1.5,1.5
			h-7.8c-0.9,0-1.7-0.7-1.7-1.7V34.3z"/>
	</g>
	<g class="st4">
		<path class="st5" d="M124.1,40.3L124.1,40.3c0-4.4,3.4-7.9,8.1-7.9c4.7,0,8,3.5,8,7.8v0c0,4.3-3.4,7.8-8.1,7.8
			S124.1,44.7,124.1,40.3z M136.7,40.3L136.7,40.3c0-2.6-1.9-4.8-4.6-4.8c-2.7,0-4.5,2.1-4.5,4.7v0c0,2.6,1.9,4.8,4.6,4.8
			C134.9,45.1,136.7,42.9,136.7,40.3z"/>
		<path class="st5" d="M142.5,40.3L142.5,40.3c0-4.4,3.4-7.9,7.9-7.9c2.3,0,3.8,0.5,5.2,1.5c0.3,0.2,0.7,0.7,0.7,1.3
			c0,0.9-0.7,1.6-1.6,1.6c-0.5,0-0.8-0.2-1-0.3c-0.9-0.6-1.9-1-3.3-1c-2.4,0-4.4,2.1-4.4,4.7v0c0,2.8,1.9,4.8,4.6,4.8
			c1.2,0,2.3-0.3,3.1-0.9V42h-2.3c-0.8,0-1.5-0.6-1.5-1.4c0-0.8,0.6-1.5,1.5-1.5h3.8c0.9,0,1.7,0.7,1.7,1.7v3.7c0,1-0.4,1.6-1.2,2.1
			c-1.2,0.8-3,1.5-5.3,1.5C145.8,48.1,142.5,44.8,142.5,40.3z"/>
		<path class="st5" d="M160.3,34.3c0-0.9,0.7-1.7,1.7-1.7c0.9,0,1.7,0.7,1.7,1.7v12.1c0,0.9-0.7,1.7-1.7,1.7c-0.9,0-1.7-0.7-1.7-1.7
			V34.3z M161.1,31.1c0-0.2,0.1-0.4,0.2-0.6l1.2-1.9c0.3-0.5,0.7-0.7,1.2-0.7c0.8,0,1.8,0.5,1.8,1c0,0.3-0.2,0.5-0.4,0.8l-1.3,1.3
			c-0.6,0.6-1.1,0.7-1.9,0.7C161.4,31.7,161.1,31.4,161.1,31.1z"/>
		<path class="st5" d="M166.6,45.7l5.3-11.9c0.4-0.8,1-1.3,1.9-1.3h0.2c0.9,0,1.6,0.5,1.9,1.3l5.3,11.9c0.1,0.2,0.2,0.5,0.2,0.7
			c0,0.9-0.7,1.6-1.6,1.6c-0.8,0-1.3-0.5-1.6-1.1l-1-2.4h-6.7l-1.1,2.5c-0.3,0.6-0.8,1-1.5,1c-0.9,0-1.5-0.7-1.5-1.6
			C166.4,46.2,166.5,46,166.6,45.7z M176,41.5l-2.1-5l-2.1,5H176z"/>
	</g>
</g>
</svg>
