<?xml version="1.0" encoding="utf-8"?>
<!-- Generator: Adobe Illustrator 25.4.1, SVG Export Plug-In . SVG Version: 6.00 Build 0)  -->
<svg version="1.1" id="Capa_1" xmlns="http://www.w3.org/2000/svg" xmlns:xlink="http://www.w3.org/1999/xlink" x="0px" y="0px"
	 viewBox="0 0 278 85" style="enable-background:new 0 0 278 85;" xml:space="preserve">
<style type="text/css">
	.st0{fill:url(#SVGID_1_);}
	.st1{fill:#BDBCBC;}
	.st2{fill:url(#SVGID_00000137133034683072577740000010132937911700125631_);}
	.st3{fill:#D91A61;}
	.st4{fill:#FFFFFF;}
</style>
<linearGradient id="SVGID_1_" gradientUnits="userSpaceOnUse" x1="238" y1="1" x2="238" y2="86" gradientTransform="matrix(1 0 0 -1 0 86)">
	<stop  offset="0" style="stop-color:#FFFFFF"/>
	<stop  offset="0.5" style="stop-color:#E9E9E9"/>
	<stop  offset="1" style="stop-color:#FFFFFF"/>
</linearGradient>
<path class="st0" d="M198,0h72c4.4,0,8,3.6,8,8v62c0,8.3-6.7,15-15,15h-65V0z"/>
<path class="st1" d="M269.3,74.6H198V85h71.3c4.8,0,8.7-3.9,8.7-8.6V66C278,70.8,274.1,74.6,269.3,74.6z"/>
<linearGradient id="SVGID_00000008145471789966575150000012645917328444245645_" gradientUnits="userSpaceOnUse" x1="99" y1="1" x2="99" y2="86" gradientTransform="matrix(1 0 0 -1 0 86)">
	<stop  offset="0" style="stop-color:#EF6491"/>
	<stop  offset="2.000000e-02" style="stop-color:#EF6491"/>
	<stop  offset="0.5" style="stop-color:#EA417B"/>
	<stop  offset="1" style="stop-color:#EF6491"/>
</linearGradient>
<path style="fill:url(#SVGID_00000008145471789966575150000012645917328444245645_);" d="M0,8c0-4.4,3.6-8,8-8h190v85H15
	C6.7,85,0,78.3,0,70V8z"/>
<path class="st3" d="M8.7,74.6C3.9,74.6,0,70.8,0,66v10.4C0,81.1,3.9,85,8.7,85H198V74.6H8.7z"/>
<path class="st3" d="M236.2,25.4l8.9,11.1c0.2,0.3,0.2,0.7,0,1l-8.9,11.1c-0.4,0.5,0,1.2,0.6,1.2h5.9c0.2,0,0.4-0.1,0.6-0.3
	l9.7-12.1c0.2-0.3,0.2-0.7,0-1l-9.8-12c-0.1-0.2-0.4-0.3-0.6-0.3h-5.9C236.1,24.1,235.8,24.9,236.2,25.4z"/>
<path class="st3" d="M223.2,25.4l8.9,11.1c0.2,0.3,0.2,0.7,0,1l-8.9,11.1c-0.4,0.5,0,1.2,0.6,1.2h5.9c0.2,0,0.4-0.1,0.6-0.3
	l9.7-12.1c0.2-0.3,0.2-0.7,0-1l-9.7-12.1c-0.1-0.2-0.4-0.3-0.6-0.3h-5.9C223.2,24.1,222.8,24.9,223.2,25.4z"/>
<path class="st4" d="M23.3,45.3c4.8,0,8.2-3.6,8.2-8v0c0-4.4-3.4-7.9-8.2-7.9s-8.2,3.6-8.2,8v0C15.2,41.7,18.6,45.3,23.3,45.3z
	 M23.4,42.1c-2.7,0-4.7-2.2-4.7-4.8v0c0-2.6,1.9-4.8,4.6-4.8s4.7,2.2,4.7,4.8v0C28,40,26.1,42.1,23.4,42.1z M34.5,43.5
	c0,0.9,0.7,1.7,1.7,1.7s1.7-0.7,1.7-1.7v-8.2l6.8,8.9c0.5,0.6,0.9,1,1.8,1h0.1c0.9,0,1.7-0.7,1.7-1.7V31.1c0-0.9-0.7-1.7-1.7-1.7
	s-1.7,0.7-1.7,1.7v7.9l-6.5-8.6c-0.5-0.6-0.9-1-1.8-1h-0.4c-0.9,0-1.7,0.7-1.7,1.7V43.5z M59.1,45.3c2.5,0,4.1-0.7,5.5-1.9
	c0.3-0.3,0.6-0.7,0.6-1.2c0-0.9-0.7-1.6-1.6-1.6c-0.4,0-0.7,0.2-1,0.4c-1,0.8-1.9,1.2-3.3,1.2c-2.6,0-4.5-2.2-4.5-4.8v0
	c0-2.6,1.9-4.8,4.5-4.8c1.2,0,2.2,0.4,3.1,1.1c0.2,0.2,0.5,0.3,1,0.3c0.9,0,1.7-0.7,1.7-1.6c0-0.6-0.3-1.1-0.7-1.3
	c-1.3-0.9-2.8-1.6-5.1-1.6c-4.7,0-8,3.6-8,8v0C51.2,41.8,54.6,45.3,59.1,45.3z M75.2,45.3c4.8,0,8.2-3.6,8.2-8v0
	c0-4.4-3.4-7.9-8.2-7.9s-8.2,3.6-8.2,8v0C67.1,41.7,70.5,45.3,75.2,45.3z M75.3,42.1c-2.7,0-4.7-2.2-4.7-4.8v0
	c0-2.6,1.9-4.8,4.6-4.8c2.7,0,4.7,2.2,4.7,4.8v0C79.9,40,78,42.1,75.3,42.1z M86.4,43.3c0,0.9,0.7,1.7,1.7,1.7h8
	c0.9,0,1.5-0.7,1.5-1.5c0-0.9-0.7-1.5-1.5-1.5h-6.3V31.2c0-0.9-0.7-1.7-1.7-1.7s-1.7,0.7-1.7,1.7V43.3z M106.6,45.3
	c4.8,0,8.2-3.6,8.2-8v0c0-4.4-3.4-7.9-8.2-7.9c-4.8,0-8.2,3.6-8.2,8v0C98.5,41.7,101.9,45.3,106.6,45.3z M106.7,42.1
	c-2.7,0-4.7-2.2-4.7-4.8v0c0-2.6,1.9-4.8,4.6-4.8c2.7,0,4.7,2.2,4.7,4.8v0C111.3,40,109.4,42.1,106.7,42.1z M125.3,45.3
	c2.3,0,4.1-0.8,5.4-1.5c0.8-0.5,1.2-1.2,1.2-2.2v-3.7c0-0.9-0.7-1.7-1.7-1.7h-3.9c-0.8,0-1.5,0.7-1.5,1.5c0,0.8,0.7,1.5,1.5,1.5h2.3
	v2.2c-0.9,0.6-2,0.9-3.2,0.9c-2.7,0-4.7-2.1-4.7-4.9v0c0-2.6,2-4.8,4.4-4.8c1.5,0,2.4,0.4,3.4,1.1c0.2,0.2,0.6,0.4,1,0.4
	c0.9,0,1.7-0.7,1.7-1.7c0-0.7-0.4-1.1-0.7-1.4c-1.4-1-2.9-1.5-5.3-1.5c-4.7,0-8.1,3.6-8.1,8v0C117.2,41.9,120.5,45.3,125.3,45.3z
	 M135.3,43.4c0,0.9,0.7,1.7,1.7,1.7s1.7-0.7,1.7-1.7V31.2c0-0.9-0.7-1.7-1.7-1.7s-1.7,0.7-1.7,1.7V43.4z M136.9,28.5
	c0.7,0,1.3-0.1,1.9-0.7l1.4-1.3c0.3-0.2,0.4-0.5,0.4-0.8c0-0.5-1.1-1-1.9-1c-0.6,0-1,0.3-1.3,0.7l-1.2,1.9c-0.1,0.2-0.2,0.4-0.2,0.6
	C136,28.3,136.4,28.5,136.9,28.5z M141.4,43.5c0,0.9,0.7,1.6,1.6,1.6c0.7,0,1.3-0.4,1.6-1.1l1.1-2.5h6.8l1,2.4
	c0.3,0.7,0.8,1.2,1.6,1.2c0.9,0,1.6-0.7,1.6-1.6c0-0.2-0.1-0.4-0.2-0.7l-5.4-12.1c-0.4-0.8-1-1.3-2-1.3H149c-0.9,0-1.6,0.5-2,1.3
	l-5.4,12.1C141.5,43.1,141.4,43.3,141.4,43.5z M146.9,38.6l2.1-5.1l2.1,5.1H146.9z"/>
</svg>
